<svg width="85" height="40" viewBox="0 0 85 40" fill="none" xmlns="http://www.w3.org/2000/svg">
<path d="M29.848 5.736L19.192 26.52V39H11.32V26.568L0.664001 5.736H9.256L15.4 20.376L21.544 5.736H29.848Z" fill="black"/>
<path d="M51.3081 39H44.7321L44.3961 35.784C42.5401 38.472 39.9641 39.816 36.6681 39.816C34.3321 39.816 32.5561 39.112 31.3401 37.704C30.1561 36.296 29.5641 34.328 29.5641 31.8V13.512H37.1481V30.84C37.1481 32.088 37.3401 32.968 37.7241 33.48C38.1401 33.96 38.7641 34.2 39.5961 34.2C41.1961 34.2 42.5721 33.208 43.7241 31.224V13.512H51.3081V39Z" fill="black"/>
<path d="M71.0969 12.792C72.0249 12.792 72.8729 12.904 73.6409 13.128L72.4409 20.472C71.4809 20.248 70.7129 20.136 70.1369 20.136C68.6329 20.136 67.4809 20.664 66.6809 21.72C65.9129 22.744 65.3049 24.296 64.8569 26.376V39H57.2729V13.512H63.8969L64.5209 18.456C65.0969 16.696 65.9609 15.32 67.1129 14.328C68.2969 13.304 69.6249 12.792 71.0969 12.792Z" fill="black"/>
<path d="M84.1225 13.512V39H76.5385V13.512H84.1225ZM80.2825 0.0719986C81.5945 0.0719986 82.6665 0.487999 83.4985 1.32C84.3625 2.12 84.7945 3.144 84.7945 4.392C84.7945 5.64 84.3625 6.68 83.4985 7.512C82.6665 8.312 81.5945 8.712 80.2825 8.712C78.9705 8.712 77.8985 8.312 77.0665 7.512C76.2345 6.68 75.8185 5.64 75.8185 4.392C75.8185 3.144 76.2345 2.12 77.0665 1.32C77.8985 0.487999 78.9705 0.0719986 80.2825 0.0719986Z" fill="black"/>
</svg>
