<svg width="290" height="40" viewBox="0 0 290 40" fill="none" xmlns="http://www.w3.org/2000/svg">
<path d="M29.8481 5.73599L19.1921 26.52V39H11.3201V26.568L0.664062 5.73599H9.25606L15.4001 20.376L21.5441 5.73599H29.8481Z" fill="#22014B"/>
<path d="M51.3082 39H44.7322L44.3962 35.784C42.5402 38.472 39.9642 39.816 36.6682 39.816C34.3322 39.816 32.5562 39.112 31.3402 37.704C30.1562 36.296 29.5642 34.328 29.5642 31.8V13.512H37.1482V30.84C37.1482 32.088 37.3402 32.968 37.7242 33.48C38.1402 33.96 38.7642 34.2 39.5962 34.2C41.1962 34.2 42.5722 33.208 43.7242 31.224V13.512H51.3082V39Z" fill="#22014B"/>
<path d="M71.0969 12.792C72.0249 12.792 72.8729 12.904 73.6409 13.128L72.4409 20.472C71.4809 20.248 70.7129 20.136 70.1369 20.136C68.6329 20.136 67.4809 20.664 66.6809 21.72C65.9129 22.744 65.3049 24.296 64.8569 26.376V39H57.2729V13.512H63.8969L64.5209 18.456C65.0969 16.696 65.9609 15.32 67.1129 14.328C68.2969 13.304 69.6249 12.792 71.0969 12.792Z" fill="#22014B"/>
<path d="M84.1226 13.512V39H76.5386V13.512H84.1226ZM80.2826 0.071991C81.5946 0.071991 82.6666 0.487991 83.4986 1.31999C84.3626 2.11999 84.7946 3.14399 84.7946 4.39199C84.7946 5.63999 84.3626 6.67999 83.4986 7.51199C82.6666 8.31199 81.5946 8.71199 80.2826 8.71199C78.9706 8.71199 77.8986 8.31199 77.0666 7.51199C76.2346 6.67999 75.8186 5.63999 75.8186 4.39199C75.8186 3.14399 76.2346 2.11999 77.0666 1.31999C77.8986 0.487991 78.9706 0.071991 80.2826 0.071991Z" fill="#22014B"/>
<path d="M115.204 4.91999C117.284 4.91999 119.124 5.22399 120.724 5.83199C122.356 6.43999 123.892 7.35199 125.332 8.56799L121.588 13.032C120.596 12.264 119.62 11.688 118.66 11.304C117.7 10.92 116.676 10.728 115.588 10.728C113.348 10.728 111.572 11.672 110.26 13.56C108.98 15.448 108.34 18.36 108.34 22.296C108.34 26.168 108.98 29.048 110.26 30.936C111.572 32.792 113.38 33.72 115.684 33.72C116.9 33.72 118.004 33.496 118.996 33.048C119.988 32.568 121.06 31.896 122.212 31.032L125.716 35.544C124.468 36.792 122.948 37.816 121.156 38.616C119.396 39.416 117.444 39.816 115.3 39.816C112.228 39.816 109.556 39.144 107.284 37.8C105.012 36.456 103.236 34.472 101.956 31.848C100.708 29.192 100.084 26.008 100.084 22.296C100.084 18.68 100.724 15.56 102.004 12.936C103.316 10.312 105.108 8.32799 107.38 6.98399C109.684 5.60799 112.292 4.91999 115.204 4.91999Z" fill="#22014B"/>
<path d="M148.873 31.608C148.873 32.568 149.001 33.272 149.257 33.72C149.545 34.168 149.993 34.504 150.601 34.728L149.017 39.672C147.449 39.544 146.169 39.208 145.177 38.664C144.185 38.088 143.417 37.192 142.873 35.976C141.209 38.536 138.649 39.816 135.193 39.816C132.665 39.816 130.649 39.08 129.145 37.608C127.641 36.136 126.889 34.216 126.889 31.848C126.889 29.064 127.913 26.936 129.961 25.464C132.009 23.992 134.969 23.256 138.841 23.256H141.433V22.152C141.433 20.648 141.113 19.624 140.473 19.08C139.833 18.504 138.713 18.216 137.113 18.216C136.281 18.216 135.273 18.344 134.089 18.6C132.905 18.824 131.689 19.144 130.441 19.56L128.713 14.568C130.313 13.96 131.945 13.496 133.609 13.176C135.305 12.856 136.873 12.696 138.313 12.696C141.961 12.696 144.633 13.448 146.329 14.952C148.025 16.456 148.873 18.712 148.873 21.72V31.608ZM137.401 34.392C139.129 34.392 140.473 33.576 141.433 31.944V27.432H139.561C137.833 27.432 136.537 27.736 135.673 28.344C134.841 28.952 134.425 29.896 134.425 31.176C134.425 32.2 134.681 33 135.193 33.576C135.737 34.12 136.473 34.392 137.401 34.392Z" fill="#22014B"/>
<path d="M168.738 12.792C169.666 12.792 170.514 12.904 171.282 13.128L170.082 20.472C169.122 20.248 168.354 20.136 167.778 20.136C166.274 20.136 165.122 20.664 164.322 21.72C163.554 22.744 162.946 24.296 162.498 26.376V39H154.914V13.512H161.538L162.162 18.456C162.738 16.696 163.602 15.32 164.754 14.328C165.938 13.304 167.266 12.792 168.738 12.792Z" fill="#22014B"/>
<path d="M196.115 13.512L188.099 39H179.123L170.915 13.512H179.171L183.683 33.24L188.387 13.512H196.115Z" fill="#22014B"/>
<path d="M217.966 31.608C217.966 32.568 218.094 33.272 218.35 33.72C218.638 34.168 219.086 34.504 219.694 34.728L218.11 39.672C216.542 39.544 215.262 39.208 214.27 38.664C213.278 38.088 212.51 37.192 211.966 35.976C210.302 38.536 207.742 39.816 204.286 39.816C201.758 39.816 199.742 39.08 198.238 37.608C196.734 36.136 195.982 34.216 195.982 31.848C195.982 29.064 197.006 26.936 199.054 25.464C201.102 23.992 204.062 23.256 207.934 23.256H210.526V22.152C210.526 20.648 210.206 19.624 209.566 19.08C208.926 18.504 207.806 18.216 206.206 18.216C205.374 18.216 204.366 18.344 203.182 18.6C201.998 18.824 200.782 19.144 199.534 19.56L197.806 14.568C199.406 13.96 201.038 13.496 202.702 13.176C204.398 12.856 205.966 12.696 207.406 12.696C211.054 12.696 213.726 13.448 215.422 14.952C217.118 16.456 217.966 18.712 217.966 21.72V31.608ZM206.494 34.392C208.222 34.392 209.566 33.576 210.526 31.944V27.432H208.654C206.926 27.432 205.63 27.736 204.766 28.344C203.934 28.952 203.518 29.896 203.518 31.176C203.518 32.2 203.774 33 204.286 33.576C204.83 34.12 205.566 34.392 206.494 34.392Z" fill="#22014B"/>
<path d="M230.307 39.816C228.099 39.816 226.371 39.192 225.123 37.944C223.907 36.664 223.299 34.856 223.299 32.52V3.38399L230.883 2.56799V32.232C230.883 33.288 231.315 33.816 232.179 33.816C232.627 33.816 233.043 33.736 233.427 33.576L234.915 38.952C233.539 39.528 232.003 39.816 230.307 39.816Z" fill="#22014B"/>
<path d="M252.717 12.696C254.925 12.696 256.653 13.368 257.901 14.712C259.149 16.056 259.773 17.944 259.773 20.376V39H252.189V21.672C252.189 20.392 251.981 19.512 251.565 19.032C251.149 18.52 250.557 18.264 249.789 18.264C248.253 18.264 246.781 19.352 245.373 21.528V39H237.789V3.38399L245.373 2.61599V16.248C246.429 15.064 247.549 14.184 248.733 13.608C249.917 13 251.245 12.696 252.717 12.696Z" fill="#22014B"/>
<path d="M276.532 12.696C280.436 12.696 283.492 13.896 285.7 16.296C287.908 18.664 289.012 21.992 289.012 26.28C289.012 29 288.5 31.384 287.476 33.432C286.484 35.448 285.044 37.016 283.156 38.136C281.3 39.256 279.092 39.816 276.532 39.816C272.66 39.816 269.604 38.632 267.364 36.264C265.156 33.864 264.052 30.52 264.052 26.232C264.052 23.512 264.548 21.144 265.54 19.128C266.564 17.08 268.004 15.496 269.86 14.376C271.748 13.256 273.972 12.696 276.532 12.696ZM276.532 18.264C274.996 18.264 273.844 18.92 273.076 20.232C272.308 21.512 271.924 23.512 271.924 26.232C271.924 29.016 272.292 31.048 273.028 32.328C273.796 33.608 274.964 34.248 276.532 34.248C278.068 34.248 279.22 33.608 279.988 32.328C280.756 31.016 281.14 29 281.14 26.28C281.14 23.496 280.756 21.464 279.988 20.184C279.252 18.904 278.1 18.264 276.532 18.264Z" fill="#22014B"/>
</svg>
